<svg width="88" height="100" viewBox="0 0 88 100" fill="none" xmlns="http://www.w3.org/2000/svg">
<path d="M43.6492 0V9.3636L9.63669 28.8573L1.70044 24.3223L43.6492 0Z" fill="#8DB9FF"/>
<path d="M41.9487 100.001V90.6372L7.93625 71.1436L0 75.6785L41.9487 100.001Z" fill="#629EFF"/>
<path d="M0 27.4404L8.10914 32.1222L7.985 71.3247L0.0893397 75.9303L0 27.4404Z" fill="#629EFF"/>
<path d="M87.3474 27.4404L79.2383 32.1222L79.3624 71.3247L87.2579 75.9303L87.3474 27.4404Z" fill="#3B86FF"/>
<path d="M43.6492 0V9.3636L77.6617 28.8573L85.5979 24.3223L43.6492 0Z" fill="#8DB9FF"/>
<path d="M45.3501 100.001V90.6372L79.3626 71.1436L87.2988 75.6785L45.3501 100.001Z" fill="#3B86FF"/>
<path d="M11.7627 35.2344L41.8071 52.6658V87.3868L11.7627 70.0972V35.2344Z" fill="#629EFF"/>
<path d="M45.4919 87.3868L75.5363 69.9554V35.2344L45.4919 52.5241V87.3868Z" fill="#3B86FF"/>
<path d="M73.6939 31.9753L43.6496 14.5439L13.6052 31.9753L43.6496 49.265L73.6939 31.9753Z" fill="#8DB9FF"/>
</svg>
