<svg width="180" height="172" viewBox="0 0 180 172" fill="none" xmlns="http://www.w3.org/2000/svg">
<path d="M89.803 0.0740967V13.086L42.5382 40.1751L31.5098 33.8731L89.803 0.0740967Z" fill="white"/>
<path d="M87.4397 139.037V126.025L40.1749 98.9362L29.1465 105.238L87.4397 139.037Z" fill="white"/>
<path d="M29.1465 38.2057L40.4152 44.7117L40.2427 99.1887L29.2706 105.589L29.1465 38.2057Z" fill="white"/>
<path d="M150.527 38.2057L139.259 44.7117L139.431 99.1887L150.403 105.589L150.527 38.2057Z" fill="white"/>
<path d="M89.8032 0.0740967V13.086L137.068 40.1751L148.096 33.8731L89.8032 0.0740967Z" fill="white"/>
<path d="M92.1663 139.037V126.025L139.431 98.9362L150.46 105.238L92.1663 139.037Z" fill="white"/>
<path d="M45.4922 49.0372L87.2428 73.2604V121.51L45.4922 97.4836V49.0372Z" fill="white"/>
<path d="M92.3633 121.51L134.114 97.2866V49.0372L92.3633 73.0635V121.51Z" fill="white"/>
<path d="M131.554 44.5077L89.8033 20.2845L48.0527 44.5077L89.8033 68.5339L131.554 44.5077Z" fill="white"/>
<path d="M73.8644 154.752C74.5915 154.752 75.2205 154.856 75.7511 155.063C76.282 155.26 76.7436 155.531 77.1359 155.877V158.3C76.859 158.092 76.5703 157.89 76.2706 157.694C75.9704 157.498 75.6301 157.337 75.2493 157.21C74.8798 157.083 74.4414 157.019 73.9337 157.019C73.2413 157.019 72.6123 157.187 72.0471 157.521C71.4815 157.856 71.0317 158.306 70.6969 158.871C70.3625 159.437 70.1951 160.083 70.1951 160.81C70.1951 161.525 70.3625 162.171 70.6969 162.748C71.0317 163.314 71.4815 163.764 72.0471 164.099C72.6123 164.422 73.2413 164.583 73.9337 164.583C74.7069 164.583 75.3528 164.468 75.8724 164.237C76.4029 163.995 76.8819 163.7 77.3088 163.354V165.691C76.9165 166.049 76.4261 166.337 75.8377 166.556C75.2493 166.764 74.5915 166.868 73.8644 166.868C73.0337 166.868 72.2491 166.724 71.5106 166.436C70.7721 166.135 70.1198 165.72 69.5546 165.189C68.989 164.647 68.5447 164.006 68.2218 163.268C67.8988 162.529 67.7373 161.71 67.7373 160.81C67.7373 159.91 67.8988 159.091 68.2218 158.352C68.5447 157.614 68.989 156.979 69.5546 156.448C70.1198 155.906 70.7721 155.49 71.5106 155.202C72.2491 154.902 73.0337 154.752 73.8644 154.752ZM88.9584 154.977V162.021C88.9584 163.025 88.7335 163.891 88.2833 164.618C87.8449 165.333 87.2451 165.887 86.4833 166.28C85.7334 166.66 84.8909 166.851 83.9562 166.851C83.0216 166.851 82.1735 166.66 81.4118 166.28C80.6504 165.887 80.0443 165.333 79.5945 164.618C79.1561 163.891 78.9367 163.025 78.9367 162.021V154.977H81.3425V161.883C81.3425 162.772 81.5792 163.441 82.0522 163.891C82.5371 164.329 83.1716 164.543 83.9562 164.532C84.7294 164.532 85.3584 164.312 85.8429 163.874C86.3277 163.435 86.57 162.772 86.57 161.883V154.977H88.9584ZM95.9174 154.735C96.8174 154.735 97.602 154.879 98.2715 155.167C98.9407 155.444 99.4598 155.831 99.8293 156.327C100.21 156.823 100.4 157.394 100.4 158.04C100.4 158.617 100.244 159.131 99.9329 159.581C99.6332 160.031 99.2523 160.377 98.7907 160.62C99.1369 160.712 99.4713 160.868 99.7946 161.087C100.118 161.295 100.383 161.577 100.591 161.935C100.799 162.281 100.902 162.726 100.902 163.268C100.902 163.914 100.706 164.508 100.314 165.051C99.9215 165.582 99.3732 166.009 98.6693 166.332C97.9655 166.655 97.1462 166.816 96.2116 166.816C95.7039 166.816 95.1556 166.793 94.5672 166.747C93.9787 166.712 93.419 166.66 92.8885 166.591C92.3575 166.51 91.9073 166.43 91.5383 166.349V155.167C92.1842 155.029 92.8826 154.925 93.6325 154.856C94.3828 154.775 95.1442 154.735 95.9174 154.735ZM95.9174 156.933C95.1788 156.933 94.5211 156.99 93.9441 157.106V159.91H96.1076C96.6964 159.91 97.1577 159.766 97.4924 159.477C97.8387 159.189 98.0116 158.82 98.0116 158.369C98.0116 157.908 97.804 157.556 97.3885 157.313C96.9848 157.06 96.4944 156.933 95.9174 156.933ZM93.9441 164.445C94.2674 164.526 94.6365 164.583 95.052 164.618C95.479 164.641 95.8193 164.652 96.0733 164.652C96.7425 164.652 97.2904 164.52 97.7174 164.254C98.1561 163.989 98.3751 163.614 98.3751 163.129C98.3751 162.645 98.1502 162.287 97.7 162.056C97.2502 161.814 96.7079 161.693 96.0733 161.693H93.9441V164.445ZM110.388 159.72V161.676H105.265V164.48H111.063V166.608H102.859V155.012H111.063V157.088H105.265V159.72H110.388Z" fill="white"/>
</svg>
