<svg width="68" height="78" viewBox="0 0 68 78" fill="none" xmlns="http://www.w3.org/2000/svg">
<path d="M33.6981 0V7.22885L7.4399 22.2783L1.31299 18.7772L33.6981 0Z" fill="white"/>
<path d="M32.3851 77.2022V69.9733L6.12692 54.9238L0 58.4249L32.3851 77.2022Z" fill="white"/>
<path d="M0 21.1846L6.26039 24.799L6.16455 55.064L0.0689717 58.6196L0 21.1846Z" fill="white"/>
<path d="M67.4337 21.1846L61.1733 24.799L61.2692 55.064L67.3646 58.6196L67.4337 21.1846Z" fill="white"/>
<path d="M33.6982 0V7.22885L59.9564 22.2783L66.0834 18.7772L33.6982 0Z" fill="white"/>
<path d="M35.0107 77.2022V69.9733L61.269 54.9238L67.3959 58.4249L35.0107 77.2022Z" fill="white"/>
<path d="M9.08105 27.2021L32.2758 40.6595V67.4647L9.08105 54.1168V27.2021Z" fill="white"/>
<path d="M35.1201 67.4647L58.3149 54.0074V27.2021L35.1201 40.5501V67.4647Z" fill="white"/>
<path d="M56.8924 24.6849L33.6977 11.2275L10.5029 24.6849L33.6977 38.0328L56.8924 24.6849Z" fill="white"/>
</svg>
