<svg width="50" height="50" viewBox="0 0 50 50" fill="none" xmlns="http://www.w3.org/2000/svg">
<circle cx="25" cy="25" r="25" fill="#3A559F"/>
<path d="M32.9167 11.5413C32.9167 11.3313 32.8333 11.1299 32.6848 10.9815C32.5363 10.833 32.335 10.7496 32.125 10.7496H28.1667C26.1734 10.6503 24.2219 11.344 22.7386 12.679C21.2552 14.0141 20.3605 15.882 20.25 17.8746V22.1496H16.2917C16.0817 22.1496 15.8803 22.233 15.7319 22.3815C15.5834 22.5299 15.5 22.7313 15.5 22.9413V27.0579C15.5 27.2679 15.5834 27.4693 15.7319 27.6177C15.8803 27.7662 16.0817 27.8496 16.2917 27.8496H20.25V38.4579C20.25 38.6679 20.3334 38.8693 20.4819 39.0177C20.6303 39.1662 20.8317 39.2496 21.0417 39.2496H25.7917C26.0016 39.2496 26.203 39.1662 26.3515 39.0177C26.4999 38.8693 26.5833 38.6679 26.5833 38.4579V27.8496H30.7317C30.9077 27.8521 31.0796 27.7959 31.2201 27.6898C31.3606 27.5837 31.4617 27.4338 31.5075 27.2638L32.6475 23.1471C32.679 23.0301 32.6832 22.9075 32.6599 22.7886C32.6365 22.6697 32.5862 22.5578 32.5128 22.4615C32.4394 22.3651 32.3448 22.2869 32.2364 22.2328C32.128 22.1787 32.0086 22.1503 31.8875 22.1496H26.5833V17.8746C26.6227 17.4827 26.8068 17.1195 27.0995 16.856C27.3923 16.5925 27.7728 16.4476 28.1667 16.4496H32.125C32.335 16.4496 32.5363 16.3662 32.6848 16.2177C32.8333 16.0693 32.9167 15.8679 32.9167 15.6579V11.5413Z" fill="white"/>
</svg>
