<svg width="50" height="50" viewBox="0 0 50 50" fill="none" xmlns="http://www.w3.org/2000/svg">
<circle cx="25" cy="25" r="25" fill="#0077B5"/>
<path d="M29.9876 19.2999C28.7741 19.2957 27.5716 19.5309 26.449 19.9919C25.3265 20.4529 24.3058 21.1308 23.4455 21.9867C22.5852 22.8426 21.9021 23.8597 21.4353 24.9799C20.9685 26.1001 20.7272 27.3013 20.7251 28.5149V37.8249C20.7251 38.2028 20.8752 38.5652 21.1425 38.8325C21.4097 39.0997 21.7722 39.2499 22.1501 39.2499H25.4751C25.853 39.2499 26.2155 39.0997 26.4827 38.8325C26.75 38.5652 26.9001 38.2028 26.9001 37.8249V28.5149C26.8998 28.0832 26.9904 27.6564 27.1661 27.2622C27.3419 26.8679 27.5987 26.5152 27.9199 26.2269C28.2411 25.9385 28.6194 25.7211 29.0302 25.5888C29.4411 25.4565 29.8752 25.4123 30.3043 25.459C31.0738 25.556 31.781 25.9319 32.2917 26.5156C32.8024 27.0993 33.0812 27.8501 33.0751 28.6257V37.8249C33.0751 38.2028 33.2252 38.5652 33.4925 38.8325C33.7597 39.0997 34.1222 39.2499 34.5001 39.2499H37.8251C38.203 39.2499 38.5655 39.0997 38.8327 38.8325C39.1 38.5652 39.2501 38.2028 39.2501 37.8249V28.5149C39.248 27.3013 39.0067 26.1001 38.5399 24.9799C38.0731 23.8597 37.39 22.8426 36.5297 21.9867C35.6693 21.1308 34.6487 20.4529 33.5261 19.9919C32.4036 19.5309 31.2011 19.2957 29.9876 19.2999Z" fill="white"/>
<path d="M16.45 20.7246H12.175C11.388 20.7246 10.75 21.3626 10.75 22.1496V37.8246C10.75 38.6116 11.388 39.2496 12.175 39.2496H16.45C17.237 39.2496 17.875 38.6116 17.875 37.8246V22.1496C17.875 21.3626 17.237 20.7246 16.45 20.7246Z" fill="white"/>
<path d="M14.3125 17.875C16.28 17.875 17.875 16.28 17.875 14.3125C17.875 12.345 16.28 10.75 14.3125 10.75C12.345 10.75 10.75 12.345 10.75 14.3125C10.75 16.28 12.345 17.875 14.3125 17.875Z" fill="white"/>
</svg>
