<svg width="50" height="50" viewBox="0 0 50 50" fill="none" xmlns="http://www.w3.org/2000/svg">
<circle cx="25" cy="25" r="25" fill="#50ABF1"/>
<path d="M18.7932 37.6663C21.1345 37.7446 23.4677 37.3528 25.655 36.5141C27.8422 35.6753 29.8392 34.4066 31.5278 32.783C33.2164 31.1593 34.5624 29.2136 35.4862 27.0609C36.4101 24.9082 36.893 22.5921 36.9065 20.2496C37.9795 18.9218 38.7762 17.393 39.2499 15.7529C39.2852 15.6234 39.2824 15.4863 39.2417 15.3583C39.2009 15.2303 39.1241 15.1168 39.0204 15.0315C38.9166 14.9462 38.7904 14.8927 38.657 14.8774C38.5236 14.8621 38.3885 14.8858 38.2682 14.9454C37.7069 15.2156 37.0749 15.3029 36.4614 15.195C35.8478 15.087 35.2836 14.7893 34.8482 14.3438C34.2924 13.7351 33.62 13.2442 32.871 12.9001C32.122 12.5561 31.3115 12.3658 30.4876 12.3407C29.6637 12.3156 28.8432 12.4562 28.0746 12.754C27.306 13.0518 26.6051 13.5009 26.0132 14.0746C25.2029 14.8594 24.6093 15.8405 24.2902 16.9225C23.9712 18.0045 23.9375 19.1507 24.1924 20.2496C18.8882 20.5663 15.2465 18.0488 12.3332 14.5971C12.2457 14.498 12.1312 14.4265 12.0037 14.3914C11.8763 14.3563 11.7413 14.359 11.6154 14.3993C11.4894 14.4396 11.378 14.5157 11.2946 14.6183C11.2112 14.7209 11.1594 14.8456 11.1457 14.9771C10.5907 18.0558 10.9911 21.2306 12.293 24.075C13.595 26.9195 15.7362 29.2975 18.429 30.8896C16.6235 32.9603 14.0879 34.2537 11.3515 34.4996C11.205 34.5239 11.0696 34.5935 10.9645 34.6985C10.8594 34.8035 10.7897 34.9388 10.7653 35.0854C10.7409 35.2319 10.7629 35.3825 10.8283 35.5159C10.8936 35.6494 10.9991 35.7591 11.1299 35.8296C13.5105 37.0193 16.132 37.6476 18.7932 37.6663Z" fill="white"/>
</svg>
